<svg width="40" height="40" viewBox="0 0 40 40" fill="none" xmlns="http://www.w3.org/2000/svg">
<g id="Icon">
<path id="Vector" d="M3.33301 34.9999C3.33287 32.4338 4.07323 29.9222 5.46525 27.7664C6.85727 25.6106 8.8418 23.9024 11.1807 22.8466C13.5195 21.7908 16.1134 21.4324 18.6509 21.8144C21.1885 22.1963 23.5619 23.3024 25.4863 24.9999M26.6663 31.6667L29.9997 35L36.6663 28.3333M24.9997 13.3333C24.9997 17.9357 21.2687 21.6667 16.6663 21.6667C12.064 21.6667 8.33301 17.9357 8.33301 13.3333C8.33301 8.73096 12.064 5 16.6663 5C21.2687 5 24.9997 8.73096 24.9997 13.3333Z" stroke="#41A771" stroke-width="2.3" stroke-linecap="round" stroke-linejoin="round"/>
</g>
</svg>
