<svg width="520" height="173" viewBox="0 0 520 173" fill="none" xmlns="http://www.w3.org/2000/svg">
<g clip-path="url(#clip0_2_374)">
<rect width="520" height="173" rx="10" fill="#081E3D"/>
<rect x="724" y="203" width="466" height="79.9999" rx="40" transform="rotate(-180 724 203)" fill="url(#paint0_linear_2_374)"/>
<rect x="479" y="55" width="353" height="65" rx="32.5" transform="rotate(-180 479 55)" fill="url(#paint1_linear_2_374)"/>
<rect x="147" y="55" width="386" height="65" rx="32.5" transform="rotate(-180 147 55)" fill="url(#paint2_linear_2_374)"/>
<rect x="342" y="203" width="271" height="80" rx="40" transform="rotate(-180 342 203)" fill="url(#paint3_linear_2_374)"/>
<rect x="436" y="-10" width="218" height="65" rx="32.5" fill="url(#paint4_linear_2_374)"/>
<rect x="-104" y="123" width="212" height="63" rx="31.5" fill="url(#paint5_linear_2_374)"/>
<path d="M48.9229 75.94C51.1429 75.94 53.0829 76.38 54.7429 77.26C56.4029 78.14 57.6829 79.38 58.5829 80.98C59.5029 82.56 59.9629 84.39 59.9629 86.47C59.9629 88.53 59.5029 90.36 58.5829 91.96C57.6829 93.56 56.3929 94.8 54.7129 95.68C53.0529 96.56 51.1229 97 48.9229 97H41.0329V75.94H48.9229ZM48.5929 92.56C50.5329 92.56 52.0429 92.03 53.1229 90.97C54.2029 89.91 54.7429 88.41 54.7429 86.47C54.7429 84.53 54.2029 83.02 53.1229 81.94C52.0429 80.86 50.5329 80.32 48.5929 80.32H46.1629V92.56H48.5929ZM65.4097 78.52C64.5097 78.52 63.7697 78.26 63.1897 77.74C62.6297 77.2 62.3497 76.54 62.3497 75.76C62.3497 74.96 62.6297 74.3 63.1897 73.78C63.7697 73.24 64.5097 72.97 65.4097 72.97C66.2897 72.97 67.0097 73.24 67.5697 73.78C68.1497 74.3 68.4397 74.96 68.4397 75.76C68.4397 76.54 68.1497 77.2 67.5697 77.74C67.0097 78.26 66.2897 78.52 65.4097 78.52ZM67.9597 80.26V97H62.8297V80.26H67.9597ZM78.4874 97.24C77.0274 97.24 75.7274 96.99 74.5874 96.49C73.4474 95.99 72.5474 95.31 71.8874 94.45C71.2274 93.57 70.8574 92.59 70.7774 91.51H75.8474C75.9074 92.09 76.1774 92.56 76.6574 92.92C77.1374 93.28 77.7274 93.46 78.4274 93.46C79.0674 93.46 79.5574 93.34 79.8974 93.1C80.2574 92.84 80.4374 92.51 80.4374 92.11C80.4374 91.63 80.1874 91.28 79.6874 91.06C79.1874 90.82 78.3774 90.56 77.2574 90.28C76.0574 90 75.0574 89.71 74.2574 89.41C73.4574 89.09 72.7674 88.6 72.1874 87.94C71.6074 87.26 71.3174 86.35 71.3174 85.21C71.3174 84.25 71.5774 83.38 72.0974 82.6C72.6374 81.8 73.4174 81.17 74.4374 80.71C75.4774 80.25 76.7074 80.02 78.1274 80.02C80.2274 80.02 81.8774 80.54 83.0774 81.58C84.2974 82.62 84.9974 84 85.1774 85.72H80.4374C80.3574 85.14 80.0974 84.68 79.6574 84.34C79.2374 84 78.6774 83.83 77.9774 83.83C77.3774 83.83 76.9174 83.95 76.5974 84.19C76.2774 84.41 76.1174 84.72 76.1174 85.12C76.1174 85.6 76.3674 85.96 76.8674 86.2C77.3874 86.44 78.1874 86.68 79.2674 86.92C80.5074 87.24 81.5174 87.56 82.2974 87.88C83.0774 88.18 83.7574 88.68 84.3374 89.38C84.9374 90.06 85.2474 90.98 85.2674 92.14C85.2674 93.12 84.9874 94 84.4274 94.78C83.8874 95.54 83.0974 96.14 82.0574 96.58C81.0374 97.02 79.8474 97.24 78.4874 97.24ZM87.3859 88.63C87.3859 86.89 87.7359 85.37 88.4359 84.07C89.1559 82.77 90.1459 81.77 91.4059 81.07C92.6859 80.37 94.1459 80.02 95.7859 80.02C97.8859 80.02 99.6359 80.57 101.036 81.67C102.456 82.77 103.386 84.32 103.826 86.32H98.3659C97.9059 85.04 97.0159 84.4 95.6959 84.4C94.7559 84.4 94.0059 84.77 93.4459 85.51C92.8859 86.23 92.6059 87.27 92.6059 88.63C92.6059 89.99 92.8859 91.04 93.4459 91.78C94.0059 92.5 94.7559 92.86 95.6959 92.86C97.0159 92.86 97.9059 92.22 98.3659 90.94H103.826C103.386 92.9 102.456 94.44 101.036 95.56C99.6159 96.68 97.8659 97.24 95.7859 97.24C94.1459 97.24 92.6859 96.89 91.4059 96.19C90.1459 95.49 89.1559 94.49 88.4359 93.19C87.7359 91.89 87.3859 90.37 87.3859 88.63ZM114.19 97.24C112.55 97.24 111.07 96.89 109.75 96.19C108.45 95.49 107.42 94.49 106.66 93.19C105.92 91.89 105.55 90.37 105.55 88.63C105.55 86.91 105.93 85.4 106.69 84.1C107.45 82.78 108.49 81.77 109.81 81.07C111.13 80.37 112.61 80.02 114.25 80.02C115.89 80.02 117.37 80.37 118.69 81.07C120.01 81.77 121.05 82.78 121.81 84.1C122.57 85.4 122.95 86.91 122.95 88.63C122.95 90.35 122.56 91.87 121.78 93.19C121.02 94.49 119.97 95.49 118.63 96.19C117.31 96.89 115.83 97.24 114.19 97.24ZM114.19 92.8C115.17 92.8 116 92.44 116.68 91.72C117.38 91 117.73 89.97 117.73 88.63C117.73 87.29 117.39 86.26 116.71 85.54C116.05 84.82 115.23 84.46 114.25 84.46C113.25 84.46 112.42 84.82 111.76 85.54C111.1 86.24 110.77 87.27 110.77 88.63C110.77 89.97 111.09 91 111.73 91.72C112.39 92.44 113.21 92.8 114.19 92.8ZM133.202 92.2L136.832 80.26H142.292L136.352 97H130.022L124.082 80.26H129.572L133.202 92.2ZM160.231 88.36C160.231 88.84 160.201 89.34 160.141 89.86H148.531C148.611 90.9 148.941 91.7 149.521 92.26C150.121 92.8 150.851 93.07 151.711 93.07C152.991 93.07 153.881 92.53 154.381 91.45H159.841C159.561 92.55 159.051 93.54 158.311 94.42C157.591 95.3 156.681 95.99 155.581 96.49C154.481 96.99 153.251 97.24 151.891 97.24C150.251 97.24 148.791 96.89 147.511 96.19C146.231 95.49 145.231 94.49 144.511 93.19C143.791 91.89 143.431 90.37 143.431 88.63C143.431 86.89 143.781 85.37 144.481 84.07C145.201 82.77 146.201 81.77 147.481 81.07C148.761 80.37 150.231 80.02 151.891 80.02C153.511 80.02 154.951 80.36 156.211 81.04C157.471 81.72 158.451 82.69 159.151 83.95C159.871 85.21 160.231 86.68 160.231 88.36ZM154.981 87.01C154.981 86.13 154.681 85.43 154.081 84.91C153.481 84.39 152.731 84.13 151.831 84.13C150.971 84.13 150.241 84.38 149.641 84.88C149.061 85.38 148.701 86.09 148.561 87.01H154.981ZM168.067 83.05C168.667 82.13 169.417 81.41 170.317 80.89C171.217 80.35 172.217 80.08 173.317 80.08V85.51H171.907C170.627 85.51 169.667 85.79 169.027 86.35C168.387 86.89 168.067 87.85 168.067 89.23V97H162.937V80.26H168.067V83.05ZM178.169 97.24C177.269 97.24 176.529 96.98 175.949 96.46C175.389 95.92 175.109 95.26 175.109 94.48C175.109 93.68 175.389 93.01 175.949 92.47C176.529 91.93 177.269 91.66 178.169 91.66C179.049 91.66 179.769 91.93 180.329 92.47C180.909 93.01 181.199 93.68 181.199 94.48C181.199 95.26 180.909 95.92 180.329 96.46C179.769 96.98 179.049 97.24 178.169 97.24ZM195.723 80.05V84.31H202.593V88.27H195.723V92.89H203.493V97H190.593V75.94H203.493V80.05H195.723ZM214.354 92.2L217.984 80.26H223.444L217.504 97H211.174L205.234 80.26H210.724L214.354 92.2ZM224.583 88.6C224.583 86.88 224.903 85.37 225.543 84.07C226.203 82.77 227.093 81.77 228.213 81.07C229.333 80.37 230.583 80.02 231.963 80.02C233.143 80.02 234.173 80.26 235.053 80.74C235.953 81.22 236.643 81.85 237.123 82.63V80.26H242.253V97H237.123V94.63C236.623 95.41 235.923 96.04 235.023 96.52C234.143 97 233.113 97.24 231.933 97.24C230.573 97.24 229.333 96.89 228.213 96.19C227.093 95.47 226.203 94.46 225.543 93.16C224.903 91.84 224.583 90.32 224.583 88.6ZM237.123 88.63C237.123 87.35 236.763 86.34 236.043 85.6C235.343 84.86 234.483 84.49 233.463 84.49C232.443 84.49 231.573 84.86 230.853 85.6C230.153 86.32 229.803 87.32 229.803 88.6C229.803 89.88 230.153 90.9 230.853 91.66C231.573 92.4 232.443 92.77 233.463 92.77C234.483 92.77 235.343 92.4 236.043 91.66C236.763 90.92 237.123 89.91 237.123 88.63ZM251.094 74.8V97H245.964V74.8H251.094ZM271.342 80.26V97H266.212V94.72C265.692 95.46 264.982 96.06 264.082 96.52C263.202 96.96 262.222 97.18 261.142 97.18C259.862 97.18 258.732 96.9 257.752 96.34C256.772 95.76 256.012 94.93 255.472 93.85C254.932 92.77 254.662 91.5 254.662 90.04V80.26H259.762V89.35C259.762 90.47 260.052 91.34 260.632 91.96C261.212 92.58 261.992 92.89 262.972 92.89C263.972 92.89 264.762 92.58 265.342 91.96C265.922 91.34 266.212 90.47 266.212 89.35V80.26H271.342ZM274.007 88.6C274.007 86.88 274.327 85.37 274.967 84.07C275.627 82.77 276.517 81.77 277.637 81.07C278.757 80.37 280.007 80.02 281.387 80.02C282.567 80.02 283.597 80.26 284.477 80.74C285.377 81.22 286.067 81.85 286.547 82.63V80.26H291.677V97H286.547V94.63C286.047 95.41 285.347 96.04 284.447 96.52C283.567 97 282.537 97.24 281.357 97.24C279.997 97.24 278.757 96.89 277.637 96.19C276.517 95.47 275.627 94.46 274.967 93.16C274.327 91.84 274.007 90.32 274.007 88.6ZM286.547 88.63C286.547 87.35 286.187 86.34 285.467 85.6C284.767 84.86 283.907 84.49 282.887 84.49C281.867 84.49 280.997 84.86 280.277 85.6C279.577 86.32 279.227 87.32 279.227 88.6C279.227 89.88 279.577 90.9 280.277 91.66C280.997 92.4 281.867 92.77 282.887 92.77C283.907 92.77 284.767 92.4 285.467 91.66C286.187 90.92 286.547 89.91 286.547 88.63ZM304.718 92.65V97H302.108C300.248 97 298.798 96.55 297.758 95.65C296.718 94.73 296.198 93.24 296.198 91.18V84.52H294.158V80.26H296.198V76.18H301.328V80.26H304.688V84.52H301.328V91.24C301.328 91.74 301.448 92.1 301.688 92.32C301.928 92.54 302.328 92.65 302.888 92.65H304.718ZM323.356 88.36C323.356 88.84 323.326 89.34 323.266 89.86H311.656C311.736 90.9 312.066 91.7 312.646 92.26C313.246 92.8 313.976 93.07 314.836 93.07C316.116 93.07 317.006 92.53 317.506 91.45H322.966C322.686 92.55 322.176 93.54 321.436 94.42C320.716 95.3 319.806 95.99 318.706 96.49C317.606 96.99 316.376 97.24 315.016 97.24C313.376 97.24 311.916 96.89 310.636 96.19C309.356 95.49 308.356 94.49 307.636 93.19C306.916 91.89 306.556 90.37 306.556 88.63C306.556 86.89 306.906 85.37 307.606 84.07C308.326 82.77 309.326 81.77 310.606 81.07C311.886 80.37 313.356 80.02 315.016 80.02C316.636 80.02 318.076 80.36 319.336 81.04C320.596 81.72 321.576 82.69 322.276 83.95C322.996 85.21 323.356 86.68 323.356 88.36ZM318.106 87.01C318.106 86.13 317.806 85.43 317.206 84.91C316.606 84.39 315.856 84.13 314.956 84.13C314.096 84.13 313.366 84.38 312.766 84.88C312.186 85.38 311.826 86.09 311.686 87.01H318.106ZM328.462 97.24C327.562 97.24 326.822 96.98 326.242 96.46C325.682 95.92 325.402 95.26 325.402 94.48C325.402 93.68 325.682 93.01 326.242 92.47C326.822 91.93 327.562 91.66 328.462 91.66C329.342 91.66 330.062 91.93 330.622 92.47C331.202 93.01 331.492 93.68 331.492 94.48C331.492 95.26 331.202 95.92 330.622 96.46C330.062 96.98 329.342 97.24 328.462 97.24ZM348.506 97.21C346.966 97.21 345.586 96.96 344.366 96.46C343.146 95.96 342.166 95.22 341.426 94.24C340.706 93.26 340.326 92.08 340.286 90.7H345.746C345.826 91.48 346.096 92.08 346.556 92.5C347.016 92.9 347.616 93.1 348.356 93.1C349.116 93.1 349.716 92.93 350.156 92.59C350.596 92.23 350.816 91.74 350.816 91.12C350.816 90.6 350.636 90.17 350.276 89.83C349.936 89.49 349.506 89.21 348.986 88.99C348.486 88.77 347.766 88.52 346.826 88.24C345.466 87.82 344.356 87.4 343.496 86.98C342.636 86.56 341.896 85.94 341.276 85.12C340.656 84.3 340.346 83.23 340.346 81.91C340.346 79.95 341.056 78.42 342.476 77.32C343.896 76.2 345.746 75.64 348.026 75.64C350.346 75.64 352.216 76.2 353.636 77.32C355.056 78.42 355.816 79.96 355.916 81.94H350.366C350.326 81.26 350.076 80.73 349.616 80.35C349.156 79.95 348.566 79.75 347.846 79.75C347.226 79.75 346.726 79.92 346.346 80.26C345.966 80.58 345.776 81.05 345.776 81.67C345.776 82.35 346.096 82.88 346.736 83.26C347.376 83.64 348.376 84.05 349.736 84.49C351.096 84.95 352.196 85.39 353.036 85.81C353.896 86.23 354.636 86.84 355.256 87.64C355.876 88.44 356.186 89.47 356.186 90.73C356.186 91.93 355.876 93.02 355.256 94C354.656 94.98 353.776 95.76 352.616 96.34C351.456 96.92 350.086 97.21 348.506 97.21ZM375.873 80.26V97H370.743V94.72C370.223 95.46 369.513 96.06 368.613 96.52C367.733 96.96 366.753 97.18 365.673 97.18C364.393 97.18 363.263 96.9 362.283 96.34C361.303 95.76 360.543 94.93 360.003 93.85C359.463 92.77 359.193 91.5 359.193 90.04V80.26H364.293V89.35C364.293 90.47 364.583 91.34 365.163 91.96C365.743 92.58 366.523 92.89 367.503 92.89C368.503 92.89 369.293 92.58 369.873 91.96C370.453 91.34 370.743 90.47 370.743 89.35V80.26H375.873ZM378.538 88.63C378.538 86.89 378.888 85.37 379.588 84.07C380.308 82.77 381.298 81.77 382.558 81.07C383.838 80.37 385.298 80.02 386.938 80.02C389.038 80.02 390.788 80.57 392.188 81.67C393.608 82.77 394.538 84.32 394.978 86.32H389.518C389.058 85.04 388.168 84.4 386.848 84.4C385.908 84.4 385.158 84.77 384.598 85.51C384.038 86.23 383.758 87.27 383.758 88.63C383.758 89.99 384.038 91.04 384.598 91.78C385.158 92.5 385.908 92.86 386.848 92.86C388.168 92.86 389.058 92.22 389.518 90.94H394.978C394.538 92.9 393.608 94.44 392.188 95.56C390.768 96.68 389.018 97.24 386.938 97.24C385.298 97.24 383.838 96.89 382.558 96.19C381.298 95.49 380.308 94.49 379.588 93.19C378.888 91.89 378.538 90.37 378.538 88.63ZM396.702 88.63C396.702 86.89 397.052 85.37 397.752 84.07C398.472 82.77 399.462 81.77 400.722 81.07C402.002 80.37 403.462 80.02 405.102 80.02C407.202 80.02 408.952 80.57 410.352 81.67C411.772 82.77 412.702 84.32 413.142 86.32H407.682C407.222 85.04 406.332 84.4 405.012 84.4C404.072 84.4 403.322 84.77 402.762 85.51C402.202 86.23 401.922 87.27 401.922 88.63C401.922 89.99 402.202 91.04 402.762 91.78C403.322 92.5 404.072 92.86 405.012 92.86C406.332 92.86 407.222 92.22 407.682 90.94H413.142C412.702 92.9 411.772 94.44 410.352 95.56C408.932 96.68 407.182 97.24 405.102 97.24C403.462 97.24 402.002 96.89 400.722 96.19C399.462 95.49 398.472 94.49 397.752 93.19C397.052 91.89 396.702 90.37 396.702 88.63ZM431.666 88.36C431.666 88.84 431.636 89.34 431.576 89.86H419.966C420.046 90.9 420.376 91.7 420.956 92.26C421.556 92.8 422.286 93.07 423.146 93.07C424.426 93.07 425.316 92.53 425.816 91.45H431.276C430.996 92.55 430.486 93.54 429.746 94.42C429.026 95.3 428.116 95.99 427.016 96.49C425.916 96.99 424.686 97.24 423.326 97.24C421.686 97.24 420.226 96.89 418.946 96.19C417.666 95.49 416.666 94.49 415.946 93.19C415.226 91.89 414.866 90.37 414.866 88.63C414.866 86.89 415.216 85.37 415.916 84.07C416.636 82.77 417.636 81.77 418.916 81.07C420.196 80.37 421.666 80.02 423.326 80.02C424.946 80.02 426.386 80.36 427.646 81.04C428.906 81.72 429.886 82.69 430.586 83.95C431.306 85.21 431.666 86.68 431.666 88.36ZM426.416 87.01C426.416 86.13 426.116 85.43 425.516 84.91C424.916 84.39 424.166 84.13 423.266 84.13C422.406 84.13 421.676 84.38 421.076 84.88C420.496 85.38 420.136 86.09 419.996 87.01H426.416ZM450.153 88.36C450.153 88.84 450.123 89.34 450.063 89.86H438.453C438.533 90.9 438.863 91.7 439.443 92.26C440.043 92.8 440.773 93.07 441.633 93.07C442.913 93.07 443.803 92.53 444.303 91.45H449.763C449.483 92.55 448.973 93.54 448.233 94.42C447.513 95.3 446.603 95.99 445.503 96.49C444.403 96.99 443.173 97.24 441.813 97.24C440.173 97.24 438.713 96.89 437.433 96.19C436.153 95.49 435.153 94.49 434.433 93.19C433.713 91.89 433.353 90.37 433.353 88.63C433.353 86.89 433.703 85.37 434.403 84.07C435.123 82.77 436.123 81.77 437.403 81.07C438.683 80.37 440.153 80.02 441.813 80.02C443.433 80.02 444.873 80.36 446.133 81.04C447.393 81.72 448.373 82.69 449.073 83.95C449.793 85.21 450.153 86.68 450.153 88.36ZM444.903 87.01C444.903 86.13 444.603 85.43 444.003 84.91C443.403 84.39 442.653 84.13 441.753 84.13C440.893 84.13 440.163 84.38 439.563 84.88C438.983 85.38 438.623 86.09 438.483 87.01H444.903ZM451.839 88.6C451.839 86.88 452.159 85.37 452.799 84.07C453.459 82.77 454.349 81.77 455.469 81.07C456.589 80.37 457.839 80.02 459.219 80.02C460.319 80.02 461.319 80.25 462.219 80.71C463.139 81.17 463.859 81.79 464.379 82.57V74.8H469.509V97H464.379V94.6C463.899 95.4 463.209 96.04 462.309 96.52C461.429 97 460.399 97.24 459.219 97.24C457.839 97.24 456.589 96.89 455.469 96.19C454.349 95.47 453.459 94.46 452.799 93.16C452.159 91.84 451.839 90.32 451.839 88.6ZM464.379 88.63C464.379 87.35 464.019 86.34 463.299 85.6C462.599 84.86 461.739 84.49 460.719 84.49C459.699 84.49 458.829 84.86 458.109 85.6C457.409 86.32 457.059 87.32 457.059 88.6C457.059 89.88 457.409 90.9 458.109 91.66C458.829 92.4 459.699 92.77 460.719 92.77C461.739 92.77 462.599 92.4 463.299 91.66C464.019 90.92 464.379 89.91 464.379 88.63ZM475.62 97.24C474.72 97.24 473.98 96.98 473.4 96.46C472.84 95.92 472.56 95.26 472.56 94.48C472.56 93.68 472.84 93.01 473.4 92.47C473.98 91.93 474.72 91.66 475.62 91.66C476.5 91.66 477.22 91.93 477.78 92.47C478.36 93.01 478.65 93.68 478.65 94.48C478.65 95.26 478.36 95.92 477.78 96.46C477.22 96.98 476.5 97.24 475.62 97.24Z" fill="url(#paint6_linear_2_374)"/>
</g>
<defs>
<linearGradient id="paint0_linear_2_374" x1="1192.43" y1="203" x2="658.314" y2="203" gradientUnits="userSpaceOnUse">
<stop stop-color="#0E1E3B"/>
<stop offset="1" stop-color="#0F305F"/>
</linearGradient>
<linearGradient id="paint1_linear_2_374" x1="833.839" y1="55" x2="429.242" y2="55" gradientUnits="userSpaceOnUse">
<stop stop-color="#0E1E3B"/>
<stop offset="1" stop-color="#0F305F"/>
</linearGradient>
<linearGradient id="paint2_linear_2_374" x1="535.01" y1="55" x2="92.5904" y2="55" gradientUnits="userSpaceOnUse">
<stop stop-color="#0E1E3B"/>
<stop offset="1" stop-color="#0F305F"/>
</linearGradient>
<linearGradient id="paint3_linear_2_374" x1="614.411" y1="203" x2="303.801" y2="203" gradientUnits="userSpaceOnUse">
<stop stop-color="#0E1E3B"/>
<stop offset="1" stop-color="#0F305F"/>
</linearGradient>
<linearGradient id="paint4_linear_2_374" x1="655.135" y1="-10" x2="458.027" y2="-10" gradientUnits="userSpaceOnUse">
<stop stop-color="#E60060"/>
<stop offset="1" stop-color="#FFB800"/>
</linearGradient>
<linearGradient id="paint5_linear_2_374" x1="160.377" y1="123" x2="-82.5792" y2="123" gradientUnits="userSpaceOnUse">
<stop stop-color="#E60060"/>
<stop offset="1" stop-color="#FFB800"/>
</linearGradient>
<linearGradient id="paint6_linear_2_374" x1="114.6" y1="79.4406" x2="433.6" y2="277.004" gradientUnits="userSpaceOnUse">
<stop stop-color="white"/>
<stop offset="1" stop-color="white" stop-opacity="0.5"/>
</linearGradient>
<clipPath id="clip0_2_374">
<rect width="520" height="173" rx="10" fill="white"/>
</clipPath>
</defs>
</svg>
